<svg width="691" height="280" viewBox="0 0 691 280" fill="none" xmlns="http://www.w3.org/2000/svg">
<rect width="280" height="280" rx="50" fill="#FFB400"/>
<rect x="51" y="51" width="178" height="178" rx="50" fill="white"/>
<path d="M169.015 93.1002H108.095C100.874 93.1002 98.9978 98.4128 98.962 101.069L96.061 126.968C95.2015 136.79 93.2245 159.809 92.1931 173.314C91.1616 186.819 102.364 187.819 108.095 186.63H149.353H178.899C186.807 186.63 187.638 178.591 187.065 174.572L184.594 143.43C183.591 132.595 181.263 108.954 179.974 101.069C178.684 93.1841 172.13 92.471 169.015 93.1002Z" fill="#FFB400"/>
<path d="M128.645 130.434C127.356 125.82 128.645 115.754 128.645 115.754C128.072 114.181 126.024 111.036 122.414 111.036C118.803 111.036 115.967 114.181 115 115.754V130.434C115 141.087 126.962 146.826 132.943 148.364C133.946 148.608 138.165 148.951 147.018 148.364C155.871 147.777 163.671 135.991 163.671 130.434V115.754C163.349 114.356 161.716 111.455 157.762 111.036C153.808 110.616 151.316 114.006 150.563 115.754C150.563 115.754 151.638 125.925 150.563 130.434C149.489 134.942 146.395 135.236 140.034 135.991C133.674 136.746 129.935 135.047 128.645 130.434Z" fill="white"/>
<path d="M94.3162 253.674C86.0441 257.33 102.588 229 102.588 229H132C132 229 102.588 250.019 94.3162 253.674Z" fill="white"/>
<path d="M355.6 125C349.467 125 344.133 124 339.6 122C335.067 120 331.533 117 329 113C326.467 108.933 325.067 103.867 324.8 97.8C324.733 94.9333 324.7 92.0667 324.7 89.2C324.7 86.3333 324.733 83.4333 324.8 80.5C325.067 74.5 326.467 69.4667 329 65.4C331.6 61.2667 335.167 58.1667 339.7 56.1C344.233 54.0333 349.533 53 355.6 53C361.6 53 366.867 54.0333 371.4 56.1C376 58.1667 379.6 61.2667 382.2 65.4C384.8 69.4667 386.2 74.5 386.4 80.5C386.533 83.4333 386.6 86.3333 386.6 89.2C386.6 92.0667 386.533 94.9333 386.4 97.8C386.133 103.867 384.733 108.933 382.2 113C379.667 117 376.133 120 371.6 122C367.067 124 361.733 125 355.6 125ZM355.6 110.6C359.133 110.6 362 109.533 364.2 107.4C366.467 105.267 367.667 101.867 367.8 97.2C367.933 94.2667 368 91.5 368 88.9C368 86.3 367.933 83.6 367.8 80.8C367.667 77.6667 367.067 75.1333 366 73.2C365 71.2 363.6 69.7333 361.8 68.8C360 67.8667 357.933 67.4 355.6 67.4C353.333 67.4 351.3 67.8667 349.5 68.8C347.7 69.7333 346.267 71.2 345.2 73.2C344.133 75.1333 343.533 77.6667 343.4 80.8C343.333 83.6 343.3 86.3 343.3 88.9C343.3 91.5 343.333 94.2667 343.4 97.2C343.6 101.867 344.8 105.267 347 107.4C349.2 109.533 352.067 110.6 355.6 110.6ZM400.691 124C399.958 124 399.358 123.767 398.891 123.3C398.425 122.833 398.191 122.233 398.191 121.5V56.5C398.191 55.7667 398.425 55.1667 398.891 54.7C399.358 54.2333 399.958 54 400.691 54H411.291C412.425 54 413.225 54.2667 413.691 54.8C414.225 55.2667 414.558 55.6333 414.691 55.9L439.091 94.4V56.5C439.091 55.7667 439.325 55.1667 439.791 54.7C440.258 54.2333 440.858 54 441.591 54H453.591C454.325 54 454.925 54.2333 455.391 54.7C455.858 55.1667 456.091 55.7667 456.091 56.5V121.5C456.091 122.167 455.858 122.767 455.391 123.3C454.925 123.767 454.325 124 453.591 124H442.891C441.825 124 441.025 123.733 440.491 123.2C440.025 122.667 439.725 122.3 439.591 122.1L415.191 85.1V121.5C415.191 122.233 414.958 122.833 414.491 123.3C414.025 123.767 413.425 124 412.691 124H400.691ZM472.566 124C471.833 124 471.233 123.767 470.766 123.3C470.3 122.833 470.066 122.233 470.066 121.5V56.5C470.066 55.7667 470.3 55.1667 470.766 54.7C471.233 54.2333 471.833 54 472.566 54H485.766C486.433 54 487 54.2333 487.466 54.7C488 55.1667 488.266 55.7667 488.266 56.5V108.9H518.466C519.2 108.9 519.8 109.167 520.266 109.7C520.8 110.167 521.066 110.767 521.066 111.5V121.5C521.066 122.233 520.8 122.833 520.266 123.3C519.8 123.767 519.2 124 518.466 124H472.566ZM532.234 124C531.501 124 530.901 123.767 530.434 123.3C529.968 122.833 529.734 122.233 529.734 121.5V56.5C529.734 55.7667 529.968 55.1667 530.434 54.7C530.901 54.2333 531.501 54 532.234 54H545.634C546.368 54 546.968 54.2333 547.434 54.7C547.901 55.1667 548.134 55.7667 548.134 56.5V121.5C548.134 122.233 547.901 122.833 547.434 123.3C546.968 123.767 546.368 124 545.634 124H532.234ZM564.656 124C563.923 124 563.323 123.767 562.856 123.3C562.39 122.833 562.156 122.233 562.156 121.5V56.5C562.156 55.7667 562.39 55.1667 562.856 54.7C563.323 54.2333 563.923 54 564.656 54H575.256C576.39 54 577.19 54.2667 577.656 54.8C578.19 55.2667 578.523 55.6333 578.656 55.9L603.056 94.4V56.5C603.056 55.7667 603.29 55.1667 603.756 54.7C604.223 54.2333 604.823 54 605.556 54H617.556C618.29 54 618.89 54.2333 619.356 54.7C619.823 55.1667 620.056 55.7667 620.056 56.5V121.5C620.056 122.167 619.823 122.767 619.356 123.3C618.89 123.767 618.29 124 617.556 124H606.856C605.79 124 604.99 123.733 604.456 123.2C603.99 122.667 603.69 122.3 603.556 122.1L579.156 85.1V121.5C579.156 122.233 578.923 122.833 578.456 123.3C577.99 123.767 577.39 124 576.656 124H564.656ZM636.531 124C635.798 124 635.198 123.767 634.731 123.3C634.265 122.833 634.031 122.233 634.031 121.5V56.5C634.031 55.7667 634.265 55.1667 634.731 54.7C635.198 54.2333 635.798 54 636.531 54H683.231C683.965 54 684.565 54.2333 685.031 54.7C685.498 55.1667 685.731 55.7667 685.731 56.5V65.9C685.731 66.6333 685.498 67.2333 685.031 67.7C684.565 68.1667 683.965 68.4 683.231 68.4H651.331V81.9H681.031C681.765 81.9 682.365 82.1667 682.831 82.7C683.298 83.1667 683.531 83.7667 683.531 84.5V93.2C683.531 93.8667 683.298 94.4667 682.831 95C682.365 95.4667 681.765 95.7 681.031 95.7H651.331V109.6H684.031C684.765 109.6 685.365 109.833 685.831 110.3C686.298 110.767 686.531 111.367 686.531 112.1V121.5C686.531 122.233 686.298 122.833 685.831 123.3C685.365 123.767 684.765 124 684.031 124H636.531ZM329.5 243C328.767 243 328.167 242.767 327.7 242.3C327.233 241.833 327 241.233 327 240.5V175.5C327 174.767 327.233 174.167 327.7 173.7C328.167 173.233 328.767 173 329.5 173H360C365.733 173 370.433 173.8 374.1 175.4C377.767 177 380.467 179.3 382.2 182.3C384 185.233 384.9 188.733 384.9 192.8C384.9 195.2 384.433 197.333 383.5 199.2C382.633 201 381.533 202.5 380.2 203.7C378.933 204.9 377.733 205.767 376.6 206.3C379.133 207.5 381.367 209.467 383.3 212.2C385.3 214.933 386.3 218.133 386.3 221.8C386.3 226.2 385.3 230 383.3 233.2C381.367 236.333 378.5 238.767 374.7 240.5C370.967 242.167 366.367 243 360.9 243H329.5ZM344.9 230H358.9C361.767 230 363.933 229.167 365.4 227.5C366.867 225.833 367.6 223.933 367.6 221.8C367.6 219.467 366.833 217.5 365.3 215.9C363.833 214.3 361.7 213.5 358.9 213.5H344.9V230ZM344.9 200.8H358C360.733 200.8 362.767 200.1 364.1 198.7C365.5 197.3 366.2 195.5 366.2 193.3C366.2 191.167 365.5 189.433 364.1 188.1C362.767 186.7 360.733 186 358 186H344.9V200.8ZM392.434 243C391.9 243 391.4 242.8 390.934 242.4C390.534 241.933 390.334 241.433 390.334 240.9C390.334 240.567 390.367 240.267 390.434 240L413.934 175.8C414.134 175.067 414.534 174.433 415.134 173.9C415.8 173.3 416.7 173 417.834 173H432.634C433.767 173 434.634 173.3 435.234 173.9C435.9 174.433 436.334 175.067 436.534 175.8L459.934 240C460.067 240.267 460.134 240.567 460.134 240.9C460.134 241.433 459.9 241.933 459.434 242.4C459.034 242.8 458.534 243 457.934 243H445.634C444.634 243 443.867 242.767 443.334 242.3C442.867 241.767 442.567 241.3 442.434 240.9L438.534 230.7H411.834L408.034 240.9C407.9 241.3 407.6 241.767 407.134 242.3C406.667 242.767 405.867 243 404.734 243H392.434ZM415.934 216.3H434.534L425.134 189.9L415.934 216.3ZM467.316 243C466.582 243 465.982 242.767 465.516 242.3C465.049 241.767 464.816 241.167 464.816 240.5V230.7C464.816 229.767 464.982 229 465.316 228.4C465.716 227.8 466.049 227.367 466.316 227.1L498.516 187.9H468.216C467.549 187.9 466.949 187.667 466.416 187.2C465.949 186.733 465.716 186.133 465.716 185.4V175.5C465.716 174.767 465.949 174.167 466.416 173.7C466.949 173.233 467.549 173 468.216 173H518.616C519.349 173 519.949 173.233 520.416 173.7C520.949 174.167 521.216 174.767 521.216 175.5V185.2C521.216 185.933 521.082 186.567 520.816 187.1C520.616 187.633 520.316 188.133 519.916 188.6L488.616 227.9H519.816C520.549 227.9 521.149 228.167 521.616 228.7C522.149 229.167 522.416 229.767 522.416 230.5V240.5C522.416 241.233 522.149 241.833 521.616 242.3C521.149 242.767 520.549 243 519.816 243H467.316ZM529.055 243C528.521 243 528.021 242.8 527.555 242.4C527.155 241.933 526.955 241.433 526.955 240.9C526.955 240.567 526.988 240.267 527.055 240L550.555 175.8C550.755 175.067 551.155 174.433 551.755 173.9C552.421 173.3 553.321 173 554.455 173H569.255C570.388 173 571.255 173.3 571.855 173.9C572.521 174.433 572.955 175.067 573.155 175.8L596.555 240C596.688 240.267 596.755 240.567 596.755 240.9C596.755 241.433 596.521 241.933 596.055 242.4C595.655 242.8 595.155 243 594.555 243H582.255C581.255 243 580.488 242.767 579.955 242.3C579.488 241.767 579.188 241.3 579.055 240.9L575.155 230.7H548.455L544.655 240.9C544.521 241.3 544.221 241.767 543.755 242.3C543.288 242.767 542.488 243 541.355 243H529.055ZM552.555 216.3H571.155L561.755 189.9L552.555 216.3ZM607.137 243C606.403 243 605.803 242.767 605.337 242.3C604.87 241.833 604.637 241.233 604.637 240.5V175.5C604.637 174.767 604.87 174.167 605.337 173.7C605.803 173.233 606.403 173 607.137 173H634.337C642.937 173 649.703 175 654.637 179C659.637 182.933 662.137 188.533 662.137 195.8C662.137 200.533 660.97 204.533 658.637 207.8C656.37 211.067 653.37 213.533 649.637 215.2L663.437 239.8C663.637 240.2 663.737 240.567 663.737 240.9C663.737 241.433 663.503 241.933 663.037 242.4C662.637 242.8 662.137 243 661.537 243H648.337C647.07 243 646.137 242.7 645.537 242.1C644.937 241.433 644.503 240.833 644.237 240.3L632.837 218.3H622.537V240.5C622.537 241.233 622.303 241.833 621.837 242.3C621.37 242.767 620.77 243 620.037 243H607.137ZM622.537 204.2H634.137C637.27 204.2 639.603 203.433 641.137 201.9C642.737 200.367 643.537 198.267 643.537 195.6C643.537 193 642.77 190.9 641.237 189.3C639.77 187.7 637.403 186.9 634.137 186.9H622.537V204.2Z" fill="#FFB400"/>
</svg>
